HIERARCHY
ROOT Hips
{
	OFFSET -3.958830 18.904000 13.208200
	CHANNELS 6 Xposition Yposition Zposition Zrotation Yrotation Xrotation 
	JOINT LHipJoint
	{
		OFFSET 0.000000 0.000000 0.000000
		CHANNELS 3 Zrotation Yrotation Xrotation
		JOINT LeftUpLeg
		{
			OFFSET 1.800000 -1.400000 0.085000
			CHANNELS 3 Zrotation Yrotation Xrotation
			JOINT LeftLeg
			{
				OFFSET 2.215000 -6.000000 0.000000
				CHANNELS 3 Zrotation Yrotation Xrotation
				JOINT LeftFoot
				{
					OFFSET 2.500000 -6.900000 0.000000
					CHANNELS 3 Zrotation Yrotation Xrotation
					JOINT LeftToeBase
					{
						OFFSET 0.200000 -0.500000 1.950000
						CHANNELS 3 Zrotation Yrotation Xrotation
						End Site
						{
							OFFSET 0.000000 0.000000 0.000000
						}
					}
				}
			}
		}
	}
	JOINT RHipJoint
	{
		OFFSET 0.000000 0.000000 0.000000
		CHANNELS 3 Zrotation Yrotation Xrotation
		JOINT RightUpLeg
		{
			OFFSET -1.800000 -1.400000 0.085000
			CHANNELS 3 Zrotation Yrotation Xrotation
			JOINT RightLeg
			{
				OFFSET -2.215000 -6.000000 0.000000
				CHANNELS 3 Zrotation Yrotation Xrotation
				JOINT RightFoot
				{
					OFFSET -2.500000 -6.900000 0.000000
					CHANNELS 3 Zrotation Yrotation Xrotation
					JOINT RightToeBase
					{
						OFFSET -0.200000 -0.500000 1.950000
						CHANNELS 3 Zrotation Yrotation Xrotation
						End Site
						{
							OFFSET 0.000000 0.000000 0.000000
						}
					}
				}
			}
		}
	}
	JOINT LowerBack
	{
		OFFSET 0.000000 0.000000 0.000000
		CHANNELS 3 Zrotation Yrotation Xrotation
		JOINT Spine
		{
			OFFSET -0.087000 1.940000 -0.288900
			CHANNELS 3 Zrotation Yrotation Xrotation
			JOINT Spine1
			{
				OFFSET 0.000000 1.950000 0.060000
				CHANNELS 3 Zrotation Yrotation Xrotation
				JOINT Neck
				{
					OFFSET 0.000000 0.000000 0.000000
					CHANNELS 3 Zrotation Yrotation Xrotation
					JOINT Neck1
					{
						OFFSET 0.000000 1.600000 0.340000
						CHANNELS 3 Zrotation Yrotation Xrotation
						JOINT Head
						{
							OFFSET 0.000000 1.667000 -0.240000
							CHANNELS 3 Zrotation Yrotation Xrotation
							End Site
							{
								OFFSET 0.000000 0.000000 0.000000
							}
						}
					}
				}
				JOINT LeftShoulder
				{
					OFFSET 0.000000 0.000000 0.000000
					CHANNELS 3 Zrotation Yrotation Xrotation
					JOINT LeftArm
					{
						OFFSET 2.700000 1.550000 -0.730000
						CHANNELS 3 Zrotation Yrotation Xrotation
						JOINT LeftForeArm
						{
							OFFSET 5.450000 0.000000 0.000000
							CHANNELS 3 Zrotation Yrotation Xrotation
							JOINT LeftHand
							{
								OFFSET 3.450000 0.000000 0.000000
								CHANNELS 3 Zrotation Yrotation Xrotation
								JOINT LeftHandIndex1
								{
									OFFSET 0.750000 0.000000 0.000000
									CHANNELS 3 Zrotation Yrotation Xrotation
									End Site
									{
										OFFSET 0.000000 0.000000 0.000000
									}
								}
							}
						}
					}
				}
				JOINT RightShoulder
				{
					OFFSET 0.000000 0.000000 0.000000
					CHANNELS 3 Zrotation Yrotation Xrotation
					JOINT RightArm
					{
						OFFSET -2.700000 1.550000 -0.730000
						CHANNELS 3 Zrotation Yrotation Xrotation
						JOINT RightForeArm
						{
							OFFSET -5.450000 0.000000 0.000000
							CHANNELS 3 Zrotation Yrotation Xrotation
							JOINT RightHand
							{
								OFFSET -3.450000 0.000000 0.000000
								CHANNELS 3 Zrotation Yrotation Xrotation
								JOINT RightHandIndex1
								{
									OFFSET -0.750000 0.000000 0.000000
									CHANNELS 3 Zrotation Yrotation Xrotation
									End Site
									{
										OFFSET 0.000000 0.000000 0.000000
									}
								}
							}
						}
					}
				}
			}
		}
	}
}
MOTION
Frames: 13
Frame Time: 0.016667
-0.594030 18.053220 -4.529860 -6.433612 3.196939 0.148860 -15.103290 13.101413 2.793204 9.572396 -0.812744 -9.627076 -5.697851 4.260123 3.232355 -0.188650 3.977115 3.436146 -0.151280 -0.161900 -0.393950 18.310560 -11.272478 2.280131 -7.988268 1.229755 -13.447298 8.923319 -8.251140 26.437917 -0.085350 -5.207887 2.596143 0.087160 0.754570 0.185880 -3.769054 -0.919894 -6.755278 6.980416 -0.495228 1.502376 -0.982364 -0.840155 9.197292 0.913451 -1.246106 -10.569517 -2.387595 0.643636 24.456761 -0.100900 -1.630840 3.490570 -26.854193 -19.648014 7.472898 -50.789947 -10.865168 2.993674 -5.198308 -9.841928 -0.315042 -4.241852 3.125183 -0.218540 0.525670 -0.409820 0.212530 25.383267 21.376075 7.382930 46.429892 15.098996 1.957196 16.415042 20.546607 1.266770 2.304512 -1.553486 -0.216860 0.244640 0.236520 0.169950 
-0.603270 18.052600 -4.549120 -6.449889 2.634118 -0.090535 -15.090193 13.127799 2.787099 9.550712 -0.774042 -9.503688 -5.319568 4.206835 3.250780 -0.200699 3.941059 3.442075 -0.141560 -0.164000 -0.373120 18.314807 -11.309692 2.274241 -8.123726 1.104457 -12.774810 8.718549 -8.087901 25.826640 -0.088592 -5.137835 2.618659 0.081910 0.729310 0.175770 -3.786572 -0.910799 -6.762668 7.310145 -0.145337 1.583901 -0.769836 -0.521680 9.165364 0.872887 -1.548448 -10.610586 -2.992441 1.010698 25.122427 0.183560 -1.422540 3.326210 -27.350928 -19.579958 7.407693 -50.676265 -10.973404 2.949095 -5.331248 -10.506072 -0.311290 -4.206164 3.119702 -0.186740 0.498180 -0.394660 0.206370 25.997130 21.524253 7.631902 45.616399 14.637427 1.493838 16.257121 21.537508 1.364265 2.295683 -1.546186 -0.222710 0.242070 0.230080 0.155710 
-0.618490 18.052580 -4.560660 -6.656148 1.760199 -0.530087 -15.055196 13.096197 2.778844 10.033797 -0.664789 -8.890481 -5.492830 4.287032 3.172068 -0.194948 4.005772 3.410945 -0.125120 -0.156760 -0.329290 18.350184 -11.373964 2.254573 -7.890716 0.908220 -11.526465 8.082675 -7.740198 24.925261 -0.094617 -5.048188 2.646712 0.084050 0.695240 0.176130 -3.873601 -0.759525 -6.738690 8.247960 0.349329 1.274628 -0.578249 -0.189660 9.427047 0.955439 -1.685941 -10.635210 -3.251841 1.629732 25.732862 -0.332090 -0.368920 3.236610 -27.949643 -19.698953 7.496071 -50.909473 -11.124859 3.063584 -5.593082 -11.099070 -0.289247 -4.187331 3.120181 -0.165970 0.483140 -0.375680 0.191490 26.459862 21.775125 7.705166 45.342376 15.152650 1.790123 13.837196 20.801263 1.008293 2.302587 -1.531178 -0.223280 0.227460 0.217710 0.132480 
-0.655940 18.046800 -4.574210 -6.994678 0.222497 -1.028013 -15.014143 13.040142 2.718282 10.601147 -0.527160 -8.236382 -5.140513 4.307298 3.326559 -0.193377 4.014483 3.396159 -0.088650 -0.123560 -0.281120 18.392510 -11.465190 2.272657 -7.739649 0.678014 -10.311772 7.843521 -7.423225 23.386949 -0.111501 -4.934834 2.689966 0.094200 0.647120 0.176940 -3.969192 -0.472902 -6.687832 8.949451 1.170360 0.908158 0.118175 0.360201 9.753576 0.947081 -1.364068 -10.408617 -2.741465 1.315086 26.736103 -0.659110 -0.236280 2.639620 -27.532761 -19.200657 7.338716 -52.061766 -11.707654 3.337298 -5.986800 -11.697649 -0.257347 -4.160273 3.108132 -0.136970 0.454550 -0.340550 0.187450 26.110600 21.196108 7.502087 45.721507 15.781929 1.836688 12.458382 21.868263 0.917248 2.294525 -1.529316 -0.211310 0.215720 0.191090 0.115870 
-0.698590 18.047500 -4.599090 -6.840892 -0.216743 -1.581863 -15.011082 13.066039 2.616090 10.333047 -0.434621 -8.267527 -4.123254 4.262761 4.262349 -0.217675 3.939494 3.414415 -0.111020 -0.169100 -0.271720 18.386351 -11.516555 2.335146 -8.308243 0.461494 -9.187734 8.737666 -7.473755 21.539938 -0.115370 -4.922593 2.691946 0.064090 0.636940 0.187480 -3.959363 -0.369313 -6.663885 8.650209 1.803116 0.702214 1.064968 0.784756 10.040867 0.898037 -0.789173 -10.515868 -1.870821 1.086187 28.016684 -0.987980 -0.021610 3.400070 -27.675356 -19.548830 7.480392 -52.298955 -12.155710 3.617844 -6.498894 -12.052537 -0.201145 -4.167305 3.103695 -0.121690 0.452420 -0.337840 0.166770 26.459384 21.232139 7.655893 45.647872 15.933761 1.442253 10.275845 23.119460 0.653549 2.277478 -1.523351 -0.214890 0.197760 0.207590 0.099400 
-0.750870 18.055110 -4.612290 -6.827104 -0.970299 -2.212268 -15.006855 13.068781 2.499147 10.619227 -0.287343 -8.259831 -3.767733 4.436463 5.732718 -0.231632 3.940166 3.390582 -0.093310 -0.162890 -0.235760 18.388342 -11.564267 2.402392 -8.490116 0.227376 -7.947763 9.336702 -7.404978 19.674334 -0.142545 -4.896971 2.698233 0.059300 0.596530 0.199170 -3.955088 -0.216632 -6.611892 8.314163 2.404883 0.421702 2.356951 1.117371 10.379314 0.729472 -0.313316 -10.439308 -1.085670 0.744100 28.970792 -1.395480 0.179890 3.098010 -26.947623 -19.178724 7.529519 -53.476580 -12.311590 3.436165 -7.177596 -13.939222 -0.161946 -4.144827 3.105475 -0.095980 0.432340 -0.310840 0.153030 26.214015 20.697392 7.459507 46.342592 16.487307 1.289791 8.740443 24.362955 0.449858 2.263851 -1.526040 -0.203010 0.176350 0.199750 0.080500 
-0.791950 18.063240 -4.621110 -7.332629 -1.640007 -2.962719 -14.987438 13.040913 2.379629 11.198493 -0.111232 -8.092388 -3.306062 4.569614 6.880066 -0.241042 3.953055 3.369489 -0.090000 -0.166150 -0.207110 18.407185 -11.597627 2.505452 -8.568874 0.070041 -6.690857 10.760193 -7.671228 18.384709 -0.193999 -5.000335 2.665845 0.050230 0.558170 0.193820 -3.999558 -0.016171 -6.602888 8.625668 2.813712 0.255364 3.673114 1.177430 10.706389 0.693745 0.340508 -10.443038 -0.043196 -0.055494 30.615382 -2.057580 0.049130 3.025860 -26.910020 -19.147380 7.744237 -54.264268 -12.154665 3.269947 -8.397555 -15.311070 -0.028673 -4.118253 3.079311 -0.066750 0.409700 -0.284520 0.137220 26.375284 20.351000 7.256427 45.672914 17.305077 1.258927 7.954093 25.637237 0.460902 2.253424 -1.508692 -0.202410 0.172200 0.194010 0.062640 
-0.855620 18.080000 -4.644930 -7.389716 -2.689960 -3.809379 -15.008915 13.096429 2.255301 11.690365 0.144369 -8.232727 -2.971153 4.876793 8.885790 -0.242959 3.994210 3.341411 -0.085050 -0.164780 -0.172450 18.378292 -11.607050 2.607689 -8.528828 -0.037755 -5.535953 11.649790 -7.688990 17.015993 -0.233497 -5.017060 2.678246 0.041400 0.521050 0.164970 -3.908136 0.007930 -6.605740 7.988688 3.451153 0.245842 5.872302 1.433819 11.250027 0.358591 0.472785 -10.894009 0.056346 -0.217511 32.764734 -2.311170 0.317880 3.008730 -26.221350 -19.815460 8.113053 -55.106118 -12.459673 3.613151 -9.588023 -15.510511 0.140031 -4.078829 3.027405 -0.025130 0.376350 -0.254080 0.129070 26.644075 21.079435 7.591914 44.659173 18.212484 0.967419 6.054949 26.753263 0.206545 2.242400 -1.479596 -0.214740 0.189030 0.174950 0.044130 
-0.903740 18.068080 -4.651970 -7.330513 -3.440535 -4.518364 -15.021448 13.109352 2.130448 11.882089 0.397340 -8.496823 -2.720791 5.181658 10.936674 -0.255444 4.042562 3.294052 -0.042140 -0.115380 -0.129460 18.368851 -11.650106 2.676391 -8.485151 -0.171861 -4.380692 11.907279 -7.580521 15.845557 -0.278934 -5.037538 2.671447 0.064820 0.476710 0.164370 -3.862803 0.142959 -6.549990 7.475551 4.141318 0.124632 7.722411 1.759583 11.804664 0.140117 0.761738 -10.957854 0.629315 -0.361034 33.722427 -2.353430 0.532950 1.968270 -25.275714 -19.834147 8.159413 -56.239069 -12.926925 4.279419 -11.442827 -14.847151 0.346496 -4.064087 3.021611 0.001290 0.349050 -0.218650 0.126240 26.397680 21.146981 7.459803 43.928226 19.921395 1.243485 4.910152 28.020124 0.101596 2.223221 -1.478805 -0.202040 0.186680 0.151990 0.030140 
-0.949840 18.045030 -4.667790 -7.221081 -4.511261 -5.075808 -15.006798 13.142285 2.001411 11.763293 0.607424 -8.881758 -1.921040 5.369264 13.180936 -0.256630 4.096327 3.267565 -0.047480 -0.119790 -0.133000 18.379377 -11.743617 2.722939 -8.393001 -0.196066 -3.809313 11.947438 -7.624151 15.838022 -0.290173 -5.124989 2.644339 0.064000 0.487710 0.174880 -3.881816 0.317644 -6.478225 7.261355 4.750694 -0.034207 9.255970 2.011678 12.411838 -0.207604 1.071016 -11.173502 1.296860 -0.487423 34.267665 -2.755990 0.867870 2.747690 -24.056673 -20.227642 8.287876 -57.002003 -13.824051 5.088143 -13.200886 -14.682920 0.595758 -4.090515 3.039424 -0.015560 0.368300 -0.226630 0.128770 26.047918 21.441182 7.494357 43.752535 21.611716 1.588956 2.652355 28.553705 -0.384776 2.210306 -1.500395 -0.199580 0.176150 0.151340 0.033470 
-0.972060 18.036620 -4.678210 -7.273336 -5.574164 -5.869508 -14.976624 13.233914 1.855886 11.044486 0.829617 -9.383513 -0.028208 5.322923 16.166740 -0.253513 4.085143 3.243591 -0.031150 -0.102280 -0.129070 18.391447 -11.846149 2.828736 -8.333594 -0.287106 -2.841986 12.346003 -7.680758 15.303823 -0.334587 -5.184435 2.630630 0.057450 0.452090 0.169930 -3.924743 0.436039 -6.472452 7.876270 5.203617 0.294612 10.620025 2.131555 12.891213 -0.406268 0.589351 -11.578089 0.414333 -0.792887 36.204804 -2.622130 0.209590 2.591340 -23.806336 -20.292600 8.638538 -57.816810 -13.118983 4.329552 -14.211062 -17.031324 0.759442 -4.029132 3.040728 0.012640 0.330490 -0.195840 0.132930 26.391208 22.026133 7.794261 41.928736 22.900870 1.222007 0.818582 29.498625 -0.666692 2.202303 -1.490546 -0.182520 0.170910 0.140500 0.036450 
-0.991050 18.032470 -4.702680 -7.131999 -6.273538 -6.530608 -14.941239 13.261446 1.769256 10.583940 0.981846 -10.252688 1.111427 5.404472 18.836858 -0.241321 4.158017 3.189053 -0.017440 -0.083390 -0.111990 18.415577 -11.956241 2.885214 -8.111982 -0.373348 -2.235898 12.112524 -7.636849 15.176731 -0.359086 -5.199715 2.622893 0.058590 0.421370 0.166350 -3.997279 0.631022 -6.459870 8.253800 5.502585 0.619349 11.676640 2.178502 13.540946 -0.595162 0.416147 -11.953108 0.300002 -0.822234 37.345792 -2.811340 0.295470 2.343410 -22.496923 -20.160476 8.974849 -59.157614 -12.469290 3.279143 -14.784635 -19.972327 0.868715 -3.985737 3.049138 0.025000 0.307560 -0.172580 0.127780 25.612109 22.290811 7.783834 41.630979 24.651273 1.161432 -1.932329 30.121626 -1.331779 2.203275 -1.483571 -0.169660 0.164530 0.129740 0.033540 
-0.998980 18.019580 -4.741230 -6.888381 -6.979927 -7.012035 -14.902427 13.284646 1.735408 10.078756 1.050174 -12.132886 1.899201 5.759275 22.714551 -0.202920 4.421342 3.065870 -0.012390 -0.069810 -0.121460 18.442369 -12.025827 2.933809 -7.958526 -0.455046 -1.905670 11.744823 -7.457226 14.624289 -0.360048 -5.159157 2.646060 0.061290 0.421610 0.161020 -4.081239 0.735624 -6.494954 8.970333 5.814082 1.256146 12.300848 2.384972 13.963966 -0.794124 0.019178 -12.216328 -0.273625 -0.418830 37.823782 -2.337770 0.320100 2.310660 -21.326966 -20.090097 9.065933 -60.242498 -12.526302 2.998493 -15.401683 -21.194322 0.965905 -3.967005 3.063032 0.024510 0.300260 -0.168280 0.135900 24.884563 22.629730 7.974220 40.856126 25.661552 0.258098 -4.452647 32.881600 -2.094152 2.165633 -1.496331 -0.163860 0.168360 0.125160 0.042330 
